<?xml version="1.0" standalone="no"?>
<!DOCTYPE svg PUBLIC "-//W3C//DTD SVG 20010904//EN"
 "http://www.w3.org/TR/2001/REC-SVG-20010904/DTD/svg10.dtd">
<svg version="1.0" xmlns="http://www.w3.org/2000/svg"
 width="1600.000000pt" height="1600.000000pt" viewBox="0 0 1600.000000 1600.000000"
 preserveAspectRatio="xMidYMid meet">
<metadata>
Created by potrace 1.14, written by Peter Selinger 2001-2017
</metadata>
<g transform="translate(0.000000,1600.000000) scale(0.100000,-0.100000)"
fill="#000000" stroke="none">
<path d="M7788 14665 c-2 -1 -68 -6 -148 -9 -80 -4 -163 -9 -185 -11 -66 -7
-147 -15 -200 -20 -196 -20 -359 -47 -715 -120 -8 -2 -71 -17 -140 -34 -1056
-267 -1993 -762 -2824 -1493 -78 -69 -444 -433 -517 -513 -674 -751 -1166
-1622 -1449 -2570 -35 -119 -94 -336 -104 -389 -3 -11 -18 -84 -34 -161 -33
-152 -34 -160 -57 -315 -9 -58 -18 -116 -20 -130 -2 -14 -7 -50 -10 -80 -3
-30 -8 -66 -10 -80 -2 -14 -7 -56 -10 -95 -3 -38 -7 -83 -10 -100 -24 -195
-24 -824 0 -1070 1 -16 6 -64 9 -105 4 -41 8 -86 10 -100 2 -14 7 -54 11 -90
4 -36 9 -74 11 -85 3 -11 9 -54 15 -95 14 -100 85 -456 110 -550 11 -41 22
-86 25 -100 18 -94 143 -482 224 -695 161 -426 442 -970 685 -1325 17 -25 55
-81 85 -125 30 -44 57 -82 60 -85 3 -3 39 -50 79 -105 103 -138 216 -278 341
-420 106 -121 385 -405 495 -505 128 -116 152 -137 200 -175 28 -22 55 -45 60
-51 18 -21 209 -169 336 -260 356 -259 623 -414 1059 -617 179 -83 232 -107
236 -107 3 0 24 -8 47 -18 94 -41 273 -110 352 -135 145 -47 185 -58 194 -52
6 3 14 20 19 38 5 18 92 257 192 532 100 275 199 547 220 605 40 111 88 241
165 455 26 72 62 171 80 220 112 311 773 2127 802 2205 19 52 54 150 78 216
l43 121 -41 13 c-139 40 -374 143 -492 213 -158 95 -324 220 -435 328 -85 84
-281 306 -337 384 -115 159 -210 379 -252 585 -30 144 -36 225 -35 440 2 264
42 487 126 702 18 45 33 85 33 88 1 11 105 211 123 237 10 16 40 60 67 100 26
40 55 80 64 90 9 10 27 32 40 48 86 111 264 272 409 368 241 160 525 269 832
317 95 15 409 21 515 9 480 -52 898 -250 1222 -580 288 -294 465 -651 539
-1083 18 -105 27 -448 14 -546 -5 -36 -11 -83 -14 -105 -27 -225 -138 -523
-266 -720 -164 -251 -435 -520 -680 -672 -151 -94 -319 -164 -475 -198 -44
-10 -82 -19 -83 -21 -4 -2 48 -154 68 -199 8 -18 258 -707 1208 -3322 174
-480 320 -873 325 -873 16 0 339 121 492 185 140 58 525 243 610 293 17 9 73
41 125 71 403 227 853 545 1140 805 264 240 515 498 676 696 16 19 37 44 48
55 10 11 30 36 44 55 15 19 30 37 33 40 3 3 54 70 113 150 489 658 851 1398
1071 2190 30 108 54 203 61 240 3 14 11 50 19 80 8 30 17 71 20 90 3 19 12 67
20 105 16 81 41 229 50 295 3 25 8 56 10 70 2 14 7 50 10 80 3 30 8 62 10 70
7 27 17 161 31 390 14 231 7 803 -11 913 -2 12 -6 54 -10 92 -10 125 -51 427
-71 530 -2 11 -7 36 -10 55 -7 36 -8 45 -24 120 -10 49 -32 148 -56 250 -50
207 -162 565 -247 786 -129 336 -339 764 -506 1034 -28 45 -51 84 -51 86 0 9
-201 306 -283 419 -90 123 -249 324 -341 430 -34 38 -72 83 -86 99 -34 41
-433 441 -495 496 -490 438 -1013 791 -1582 1066 -84 41 -181 86 -216 100 -34
14 -80 35 -102 45 -138 64 -550 207 -785 272 -302 85 -625 151 -885 182 -27 3
-61 8 -75 10 -14 3 -52 7 -85 10 -33 3 -75 8 -93 10 -18 3 -68 7 -110 10 -42
3 -108 8 -147 11 -67 6 -592 13 -597 9z m482 -1340 c74 -3 151 -8 170 -10 19
-2 64 -6 100 -9 90 -9 139 -15 178 -21 17 -3 49 -8 70 -11 93 -11 364 -65 462
-91 30 -8 66 -16 80 -19 47 -10 235 -66 370 -111 1012 -342 1910 -993 2561
-1858 410 -544 711 -1158 889 -1813 50 -185 109 -470 125 -602 3 -25 7 -52 10
-60 2 -8 7 -51 11 -95 3 -44 8 -82 9 -85 2 -3 7 -53 10 -110 4 -58 9 -121 11
-140 4 -40 4 -525 0 -585 -2 -22 -6 -85 -10 -140 -4 -55 -9 -111 -11 -124 -3
-14 -7 -52 -10 -85 -3 -34 -10 -86 -15 -116 -5 -30 -12 -77 -16 -105 -7 -62
-84 -426 -99 -475 -3 -10 -8 -28 -10 -41 -24 -125 -186 -589 -277 -793 -42
-94 -184 -374 -228 -451 -29 -49 -60 -103 -70 -120 -62 -110 -250 -385 -338
-495 -24 -30 -49 -62 -55 -70 -18 -23 -157 -190 -192 -230 -59 -68 -352 -358
-441 -437 -117 -103 -302 -250 -429 -341 -160 -114 -318 -213 -326 -205 -4 5
-34 80 -67 168 -33 88 -74 198 -92 245 -17 47 -35 94 -40 105 -9 21 -61 158
-140 370 -27 72 -95 249 -150 395 -55 146 -132 350 -171 453 l-70 188 28 22
c217 170 397 350 583 583 5 7 36 50 68 95 312 437 519 1005 567 1554 4 39 9
86 11 105 5 41 5 430 0 475 -2 17 -6 66 -10 110 -4 44 -11 105 -16 135 -6 30
-12 71 -14 90 -16 126 -102 456 -153 590 -152 395 -302 659 -547 963 -74 93
-282 310 -371 387 -168 146 -340 268 -570 403 -76 44 -293 145 -418 194 -264
102 -606 184 -872 208 -33 3 -82 8 -110 10 -59 6 -435 6 -485 1 -19 -2 -73 -7
-120 -11 -47 -4 -87 -8 -90 -10 -3 -1 -32 -6 -65 -9 -33 -4 -76 -11 -95 -16
-19 -5 -53 -11 -74 -15 -181 -27 -549 -149 -777 -258 -269 -130 -542 -309
-753 -497 -438 -388 -768 -888 -948 -1435 -57 -174 -111 -404 -133 -560 -3
-23 -7 -51 -10 -64 -2 -12 -7 -59 -11 -104 -3 -45 -8 -91 -10 -102 -6 -27 -5
-452 0 -490 2 -16 7 -70 11 -120 4 -49 8 -92 10 -95 2 -3 6 -29 10 -59 4 -30
9 -63 11 -75 3 -12 11 -55 19 -96 29 -149 54 -240 111 -410 171 -506 464 -952
869 -1320 38 -35 186 -157 213 -176 2 -1 -26 -83 -63 -181 -37 -98 -78 -207
-91 -243 -13 -36 -28 -74 -33 -85 -5 -11 -40 -101 -77 -200 -87 -234 -279
-743 -309 -820 -13 -33 -52 -134 -86 -225 -34 -91 -64 -168 -66 -173 -6 -10
-29 3 -183 106 -323 216 -529 385 -816 672 -124 124 -239 248 -311 335 -466
568 -783 1154 -994 1839 -28 89 -83 295 -93 345 -3 11 -14 66 -26 121 -11 55
-30 156 -41 225 -26 160 -26 164 -34 235 -4 33 -8 74 -10 90 -5 45 -17 192
-21 260 -5 88 -4 531 1 595 2 30 7 89 10 130 30 403 113 809 259 1265 73 227
242 612 371 845 210 379 424 681 730 1029 57 65 301 307 390 388 661 597 1490
1034 2340 1232 151 36 133 32 208 45 12 2 74 13 137 24 63 12 142 24 175 28
33 3 67 8 75 9 17 3 124 15 190 20 25 3 117 7 205 11 88 4 161 7 162 8 4 3
220 -3 343 -9z"/>
</g>
</svg>
